<?xml version="1.0" encoding="utf-8"?>
<!-- Generator: Adobe Illustrator 16.0.4, SVG Export Plug-In . SVG Version: 6.00 Build 0)  -->
<!DOCTYPE svg PUBLIC "-//W3C//DTD SVG 1.1//EN" "http://www.w3.org/Graphics/SVG/1.1/DTD/svg11.dtd">
<svg version="1.1" id="Layer_1" xmlns="http://www.w3.org/2000/svg" xmlns:xlink="http://www.w3.org/1999/xlink" x="0px" y="0px"
	 width="278px" height="64px" viewBox="0 0 278 64" enable-background="new 0 0 278 64" xml:space="preserve">
<g>
	<g>
		<path fill="#005D7D" d="M80.246,36.333c3.645,0,6.126,2.447,6.126,6.021c0,3.627-2.481,6.126-6.074,6.126
			c-3.677,0-6.247-2.518-6.247-6.126C74.052,38.745,76.534,36.333,80.246,36.333 M80.265,38.085c-2.308,0-3.939,1.806-3.939,4.373
			c0,2.499,1.613,4.25,3.886,4.25c2.291,0,3.887-1.768,3.887-4.318C84.099,39.855,82.538,38.085,80.265,38.085z"/>
		<path fill="#005D7D" d="M90.802,39.957v5.958c0,1.503,0.16,1.967,0.738,2.097v0.174c-0.853-0.029-1.2-0.029-1.663-0.029
			c-0.476,0-0.809,0-1.648,0.029v-0.174c0.578-0.13,0.723-0.564,0.723-2.097v-5.104c0-1.533-0.16-1.981-0.723-2.082V38.54h3.585
			c1.23,0,1.852,0.116,2.503,0.462c0.852,0.464,1.33,1.288,1.33,2.314c0,1.229-0.638,2.067-1.866,2.487l2.17,3.368
			c0.375,0.594,0.548,0.753,0.881,0.854v0.174c-0.506,0.058-0.939,0.087-1.286,0.087c-0.868,0-1.244-0.216-1.765-1.085l-2.516-4.105
			l0.087-0.116c0.188,0.028,0.274,0.043,0.434,0.043c1.186,0,1.966-0.637,1.966-1.576c0-0.997-0.752-1.547-2.068-1.547
			C91.323,39.899,91.178,39.899,90.802,39.957"/>
		<path fill="#005D7D" d="M97.686,38.729V38.54h3.441c1.474,0,2.574,0.274,3.456,0.868c1.257,0.853,1.981,2.284,1.981,3.961
			c0,3.023-1.995,4.816-5.379,4.816h-3.499v-0.174c0.578-0.13,0.723-0.55,0.723-2.097v-5.104
			C98.409,39.277,98.249,38.829,97.686,38.729 M100.258,40.059v5.48c0,1.013,0.175,1.199,1.201,1.199c1.982,0,3.21-1.257,3.21-3.311
			c0-2.111-1.33-3.457-3.413-3.457C100.924,39.971,100.737,39.986,100.258,40.059z"/>
		<path fill="#005D7D" d="M110.756,39.957v5.958c0,1.503,0.16,1.967,0.739,2.097v0.174c-0.853-0.029-1.201-0.029-1.663-0.029
			c-0.478,0-0.81,0-1.649,0.029v-0.174c0.579-0.13,0.724-0.564,0.724-2.097v-5.104c0-1.533-0.16-1.981-0.724-2.082V38.54h3.586
			c1.229,0,1.852,0.116,2.502,0.462c0.852,0.464,1.33,1.288,1.33,2.314c0,1.229-0.636,2.067-1.866,2.487l2.17,3.368
			c0.377,0.594,0.549,0.753,0.883,0.854v0.174c-0.506,0.058-0.94,0.087-1.288,0.087c-0.867,0-1.244-0.216-1.765-1.085l-2.515-4.105
			l0.087-0.116c0.188,0.028,0.274,0.043,0.434,0.043c1.184,0,1.965-0.637,1.965-1.576c0-0.997-0.751-1.547-2.066-1.547
			C111.278,39.899,111.133,39.899,110.756,39.957"/>
		<path fill="#005D7D" d="M120.214,39.971v2.415h1.591c0.968,0,1.374-0.188,1.575-0.723h0.174c-0.029,0.608-0.029,0.853-0.029,1.359
			c0,0.536,0,0.796,0.029,1.46h-0.174c-0.158-0.491-0.578-0.679-1.546-0.679h-1.62v2.169c0,0.68,0.145,0.795,1.026,0.795h0.97
			c1.055,0,1.546-0.23,1.734-0.795L124.118,46l-0.231,2.186h-6.247v-0.188c0.579-0.115,0.723-0.55,0.723-2.098v-5.089
			c0-1.562-0.144-1.981-0.723-2.098V38.54h6.291v2.11h-0.189c-0.217-0.549-0.563-0.68-1.633-0.68H120.214"/>
		<path fill="#005D7D" d="M129.729,38.729V38.54h3.441c1.475,0,2.573,0.274,3.456,0.868c1.257,0.853,1.981,2.284,1.981,3.961
			c0,3.023-1.997,4.816-5.38,4.816h-3.498v-0.174c0.579-0.13,0.723-0.55,0.723-2.097v-5.104
			C130.452,39.277,130.292,38.829,129.729,38.729 M132.303,40.059v5.48c0,1.013,0.174,1.199,1.2,1.199c1.98,0,3.21-1.257,3.21-3.311
			c0-2.111-1.332-3.457-3.414-3.457C132.967,39.971,132.779,39.986,132.303,40.059z"/>
		<path fill="#005D7D" d="M142.801,39.971v2.415h1.59c0.97,0,1.374-0.188,1.574-0.723h0.175c-0.028,0.608-0.028,0.853-0.028,1.359
			c0,0.536,0,0.796,0.028,1.46h-0.175c-0.157-0.491-0.577-0.679-1.545-0.679h-1.619v2.169c0,0.68,0.145,0.795,1.026,0.795h0.968
			c1.057,0,1.547-0.23,1.736-0.795L146.704,46l-0.231,2.186h-6.246v-0.188c0.577-0.115,0.724-0.55,0.724-2.098v-5.089
			c0-1.562-0.146-1.981-0.724-2.098V38.54h6.29v2.11h-0.188c-0.218-0.549-0.564-0.68-1.635-0.68H142.801"/>
		<path fill="#005D7D" d="M153.673,38.54v2.11h-0.201c-0.447-0.608-1.171-0.953-2.024-0.953c-0.823,0-1.432,0.491-1.432,1.156
			c0,0.622,0.23,0.824,1.967,1.707c1.129,0.578,1.664,1.099,1.924,1.865c0.115,0.332,0.172,0.679,0.172,1.056
			c0,1.792-1.344,2.949-3.44,2.949c-0.767,0-1.505-0.145-2.372-0.463L148.079,46l0.187-0.014c0.507,0.666,1.315,1.027,2.271,1.027
			c0.996,0,1.736-0.621,1.736-1.459c0-0.639-0.363-1.057-1.375-1.563c-1.636-0.825-2.126-1.229-2.475-2.009
			c-0.129-0.305-0.201-0.651-0.201-1.014c0-1.561,1.242-2.66,2.992-2.66c0.507,0,0.883,0.059,1.591,0.246
			c0.146,0.044,0.318,0.071,0.406,0.071c0.086,0,0.145-0.014,0.26-0.086H153.673"/>
		<path fill="#005D7D" d="M159.626,38.647v-0.189l0.723,0.016c0.349,0.015,0.666,0.015,0.955,0.015c0.275,0,0.577,0,0.882-0.015
			l0.754-0.016v0.189c-0.565,0.102-0.738,0.579-0.738,2.083v5.104c0,1.504,0.16,1.967,0.738,2.098v0.174
			c-0.797-0.031-1.113-0.031-1.723-0.031c-0.562,0-0.852,0-1.591,0.031v-0.174c0.579-0.131,0.723-0.564,0.723-2.098V40.73
			C160.349,39.197,160.191,38.749,159.626,38.647"/>
		<path fill="#005D7D" d="M165.31,38.025l6.275,6.623V40.73c0-1.591-0.159-2.039-0.767-2.083v-0.189l0.767,0.016l0.825,0.015
			l0.824-0.015l0.722-0.016v0.189c-0.548,0.102-0.709,0.55-0.709,2.083v7.75h-0.202l-6.26-6.58v3.934
			c0,1.576,0.144,2.01,0.752,2.098v0.174c-0.839-0.031-1.187-0.031-1.606-0.031c-0.403,0-0.735,0-1.548,0.031v-0.174
			c0.579-0.131,0.725-0.564,0.725-2.098v-7.809H165.31"/>
		<path fill="#005D7D" d="M177.976,39.893v2.385h1.446c0.997,0,1.477-0.188,1.677-0.68h0.175v0.434
			c-0.016,0.289-0.016,0.882-0.016,1.287c0,0.449,0,0.578,0.016,1.041h-0.175c-0.26-0.521-0.621-0.651-1.677-0.651h-1.446v2.126
			c0,1.504,0.175,1.967,0.738,2.098v0.174c-0.781-0.016-1.114-0.031-1.665-0.031c-0.561,0-0.866,0.016-1.646,0.031v-0.174
			c0.562-0.116,0.723-0.578,0.723-2.098V40.73c0-1.519-0.16-1.981-0.723-2.098v-0.175h6.23v2.083h-0.173
			c-0.216-0.52-0.548-0.648-1.705-0.648H177.976"/>
		<path fill="#005D7D" d="M183.037,38.647v-0.189l0.723,0.016c0.348,0.015,0.664,0.015,0.954,0.015c0.276,0,0.579,0,0.883-0.015
			l0.752-0.016v0.189c-0.563,0.102-0.737,0.579-0.737,2.083v5.104c0,1.504,0.158,1.967,0.737,2.098v0.174
			c-0.796-0.031-1.113-0.031-1.722-0.031c-0.562,0-0.852,0-1.59,0.031v-0.174c0.578-0.131,0.723-0.564,0.723-2.098V40.73
			C183.76,39.197,183.601,38.749,183.037,38.647"/>
		<path fill="#005D7D" d="M190.369,39.875v5.959c0,1.504,0.158,1.967,0.737,2.098v0.174c-0.855-0.031-1.2-0.031-1.663-0.031
			c-0.479,0-0.812,0-1.649,0.031v-0.174c0.578-0.131,0.723-0.564,0.723-2.098V40.73c0-1.533-0.158-1.981-0.723-2.083v-0.189h3.586
			c1.229,0,1.852,0.117,2.501,0.465c0.854,0.462,1.331,1.286,1.331,2.313c0,1.229-0.636,2.066-1.865,2.486l2.169,3.369
			c0.376,0.592,0.551,0.752,0.883,0.854v0.174c-0.507,0.057-0.94,0.086-1.287,0.086c-0.867,0-1.243-0.216-1.765-1.083l-2.517-4.106
			l0.087-0.117c0.189,0.029,0.275,0.043,0.434,0.043c1.187,0,1.968-0.635,1.968-1.575c0-0.997-0.752-1.548-2.069-1.548
			C190.888,39.818,190.744,39.818,190.369,39.875"/>
		<path fill="#005D7D" d="M203.035,45.025l3.253-7.058h0.23l2.242,8.69c0.217,0.825,0.361,1.07,0.795,1.273v0.174
			c-0.852-0.031-1.171-0.031-1.619-0.031c-0.434,0-0.709,0-1.372,0.031v-0.174c0.288-0.102,0.418-0.274,0.418-0.549
			c0-0.102-0.028-0.334-0.059-0.479l-0.968-4.656l-2.834,6.16h-0.246l-2.848-6.16l-0.997,4.643
			c-0.075,0.303-0.104,0.447-0.104,0.563c0,0.229,0.146,0.39,0.419,0.478v0.174c-0.592-0.031-0.823-0.031-1.358-0.031
			c-0.549,0-0.781,0-1.373,0.031v-0.174c0.42-0.145,0.506-0.29,0.781-1.39l2.152-8.574h0.218L203.035,45.025"/>
		<path fill="#005D7D" d="M210.367,38.647v-0.189l0.722,0.016c0.346,0.015,0.664,0.015,0.954,0.015c0.276,0,0.579,0,0.881-0.015
			l0.753-0.016v0.189c-0.562,0.102-0.736,0.579-0.736,2.083v5.104c0,1.504,0.158,1.967,0.736,2.098v0.174
			c-0.796-0.031-1.112-0.031-1.721-0.031c-0.564,0-0.854,0-1.589,0.031v-0.174c0.577-0.131,0.722-0.564,0.722-2.098V40.73
			C211.089,39.197,210.929,38.749,210.367,38.647"/>
		<path fill="#005D7D" d="M217.697,39.893v2.414h1.591c0.968,0,1.374-0.189,1.575-0.724h0.175c-0.03,0.606-0.03,0.853-0.03,1.358
			c0,0.536,0,0.795,0.03,1.461h-0.175c-0.159-0.491-0.578-0.68-1.546-0.68h-1.62v2.17c0,0.68,0.143,0.795,1.026,0.795h0.97
			c1.055,0,1.547-0.231,1.733-0.795l0.174,0.029l-0.229,2.184h-6.249v-0.19c0.58-0.114,0.723-0.548,0.723-2.095v-5.09
			c0-1.562-0.143-1.981-0.723-2.098v-0.175h6.291v2.112h-0.188c-0.218-0.549-0.563-0.678-1.634-0.678H217.697"/>
		<path fill="#005D7D" d="M225.59,39.875v5.959c0,1.504,0.161,1.967,0.739,2.098v0.174c-0.853-0.031-1.2-0.031-1.663-0.031
			c-0.476,0-0.809,0-1.647,0.031v-0.174c0.578-0.131,0.723-0.564,0.723-2.098V40.73c0-1.533-0.16-1.981-0.723-2.083v-0.189h3.585
			c1.229,0,1.853,0.117,2.504,0.465c0.851,0.462,1.329,1.286,1.329,2.313c0,1.229-0.638,2.066-1.865,2.486l2.169,3.369
			c0.376,0.592,0.549,0.752,0.882,0.854v0.174c-0.506,0.057-0.94,0.086-1.287,0.086c-0.868,0-1.245-0.216-1.764-1.083l-2.517-4.106
			l0.087-0.117c0.188,0.029,0.275,0.043,0.435,0.043c1.185,0,1.966-0.635,1.966-1.575c0-0.997-0.752-1.548-2.068-1.548
			C226.112,39.818,225.967,39.818,225.59,39.875"/>
		<path fill="#005D7D" d="M235.049,39.893v2.414h1.59c0.969,0,1.374-0.189,1.576-0.724h0.175c-0.029,0.606-0.029,0.853-0.029,1.358
			c0,0.536,0,0.795,0.029,1.461h-0.175c-0.158-0.491-0.579-0.68-1.547-0.68h-1.619v2.17c0,0.68,0.145,0.795,1.027,0.795h0.968
			c1.057,0,1.546-0.231,1.735-0.795l0.174,0.029l-0.231,2.184h-6.247v-0.19c0.578-0.114,0.725-0.548,0.725-2.095v-5.09
			c0-1.562-0.146-1.981-0.725-2.098v-0.175h6.29v2.112h-0.187c-0.218-0.549-0.565-0.678-1.635-0.678H235.049"/>
		<path fill="#005D7D" d="M245.923,38.458v2.112h-0.203c-0.448-0.607-1.171-0.955-2.022-0.955c-0.826,0-1.434,0.492-1.434,1.158
			c0,0.622,0.232,0.824,1.967,1.706c1.128,0.579,1.663,1.099,1.925,1.865c0.113,0.333,0.173,0.681,0.173,1.056
			c0,1.793-1.345,2.95-3.442,2.95c-0.765,0-1.505-0.146-2.372-0.462l-0.188-1.967l0.188-0.016c0.508,0.666,1.317,1.027,2.271,1.027
			c0.998,0,1.736-0.622,1.736-1.461c0-0.638-0.363-1.055-1.377-1.562c-1.632-0.826-2.123-1.229-2.471-2.011
			c-0.13-0.303-0.204-0.65-0.204-1.012c0-1.561,1.245-2.66,2.994-2.66c0.506,0,0.883,0.058,1.592,0.245
			c0.146,0.044,0.317,0.073,0.404,0.073c0.086,0,0.146-0.015,0.26-0.089H245.923"/>
		<polyline fill="#005D7D" points="218.712,37.77 217.642,37.77 215.908,35.904 217.685,35.904 218.712,37.77 		"/>
		<path fill="#005D7D" d="M76.628,54.092v2.414h1.589c0.969,0,1.374-0.188,1.577-0.723h0.172c-0.027,0.606-0.027,0.854-0.027,1.359
			c0,0.533,0,0.795,0.027,1.46h-0.172c-0.161-0.491-0.579-0.68-1.547-0.68h-1.619v2.169c0,0.68,0.143,0.796,1.027,0.796h0.967
			c1.056,0,1.547-0.231,1.736-0.796l0.173,0.029l-0.232,2.184h-6.247v-0.188c0.58-0.116,0.724-0.551,0.724-2.098v-5.09
			c0-1.561-0.145-1.98-0.724-2.096V52.66h6.291v2.111h-0.188c-0.216-0.55-0.563-0.68-1.634-0.68H76.628"/>
		<path fill="#005D7D" d="M86.07,54.105v5.929c0,1.489,0.173,1.967,0.78,2.097v0.174c-0.867-0.029-1.229-0.029-1.72-0.029
			c-0.492,0-0.825,0-1.65,0.029v-0.174c0.58-0.13,0.739-0.564,0.739-2.097v-5.929h-0.723c-1.013,0-1.417,0.16-1.633,0.65h-0.189
			l0.189-2.096h6.622l0.186,2.096h-0.186c-0.233-0.49-0.637-0.65-1.635-0.65H86.07"/>
		<path fill="#005D7D" d="M94.036,52.848V52.66l0.722,0.014c0.349,0.016,0.666,0.016,0.956,0.016c0.276,0,0.579,0,0.882-0.016
			l0.751-0.014v0.188c-0.562,0.102-0.737,0.578-0.737,2.082v5.104c0,1.503,0.159,1.967,0.737,2.097v0.174
			c-0.795-0.029-1.112-0.029-1.72-0.029c-0.564,0-0.854,0-1.591,0.029v-0.174c0.579-0.13,0.722-0.564,0.722-2.097V54.93
			C94.758,53.396,94.6,52.949,94.036,52.848"/>
		<path fill="#005D7D" d="M99.719,52.227l6.277,6.622V54.93c0-1.59-0.16-2.039-0.768-2.082V52.66l0.768,0.014l0.823,0.016
			l0.825-0.016l0.722-0.014v0.188c-0.549,0.102-0.708,0.549-0.708,2.082v7.75h-0.204l-6.259-6.579v3.934
			c0,1.577,0.144,2.011,0.752,2.097v0.174c-0.84-0.029-1.188-0.029-1.606-0.029c-0.404,0-0.736,0-1.547,0.029v-0.174
			c0.58-0.13,0.725-0.564,0.725-2.097v-7.808H99.719"/>
		<path fill="#005D7D" d="M112.384,54.092v2.385h1.448c0.998,0,1.476-0.188,1.677-0.679h0.174v0.434
			c-0.014,0.288-0.014,0.882-0.014,1.286c0,0.449,0,0.578,0.014,1.042h-0.174c-0.26-0.521-0.621-0.651-1.677-0.651h-1.448v2.126
			c0,1.503,0.175,1.967,0.739,2.097v0.174c-0.782-0.014-1.114-0.029-1.663-0.029c-0.563,0-0.869,0.016-1.647,0.029v-0.174
			c0.564-0.115,0.722-0.578,0.722-2.097V54.93c0-1.518-0.158-1.98-0.722-2.096V52.66h6.231v2.082h-0.173
			c-0.217-0.521-0.551-0.65-1.708-0.65H112.384"/>
		<path fill="#005D7D" d="M117.448,52.848V52.66l0.722,0.014c0.347,0.016,0.664,0.016,0.955,0.016c0.275,0,0.578,0,0.881-0.016
			l0.751-0.014v0.188c-0.562,0.102-0.736,0.578-0.736,2.082v5.104c0,1.503,0.159,1.967,0.736,2.097v0.174
			c-0.794-0.029-1.112-0.029-1.72-0.029c-0.563,0-0.852,0-1.589,0.029v-0.174c0.577-0.13,0.722-0.564,0.722-2.097V54.93
			C118.17,53.396,118.011,52.949,117.448,52.848"/>
		<path fill="#005D7D" d="M124.778,54.076v5.958c0,1.503,0.159,1.967,0.737,2.097v0.174c-0.854-0.029-1.201-0.029-1.663-0.029
			c-0.478,0-0.809,0-1.648,0.029v-0.174c0.579-0.13,0.723-0.564,0.723-2.097V54.93c0-1.533-0.158-1.98-0.723-2.082V52.66h3.585
			c1.231,0,1.852,0.115,2.503,0.463c0.854,0.461,1.33,1.287,1.33,2.312c0,1.229-0.636,2.068-1.866,2.487l2.169,3.368
			c0.376,0.594,0.55,0.754,0.883,0.854v0.173c-0.506,0.058-0.94,0.087-1.287,0.087c-0.868,0-1.243-0.216-1.765-1.084l-2.516-4.106
			l0.087-0.117c0.188,0.029,0.275,0.045,0.434,0.045c1.187,0,1.967-0.637,1.967-1.576c0-0.998-0.753-1.548-2.068-1.548
			C125.298,54.019,125.154,54.019,124.778,54.076"/>
		<path fill="#005D7D" d="M137.445,59.225l3.253-7.058h0.232l2.24,8.692c0.218,0.822,0.362,1.068,0.796,1.271v0.174
			c-0.854-0.029-1.173-0.029-1.62-0.029c-0.433,0-0.708,0-1.374,0.029v-0.174c0.289-0.102,0.42-0.274,0.42-0.549
			c0-0.102-0.028-0.334-0.059-0.479l-0.968-4.656l-2.834,6.161h-0.245l-2.849-6.161l-1,4.643c-0.07,0.304-0.101,0.447-0.101,0.564
			c0,0.23,0.145,0.391,0.42,0.477v0.174c-0.594-0.029-0.825-0.029-1.359-0.029c-0.548,0-0.781,0-1.374,0.029v-0.174
			c0.419-0.145,0.506-0.289,0.782-1.389l2.154-8.575h0.217L137.445,59.225"/>
		<path fill="#005D7D" d="M144.776,52.848V52.66l0.723,0.014c0.347,0.016,0.665,0.016,0.954,0.016c0.274,0,0.578,0,0.883-0.016
			l0.751-0.014v0.188c-0.563,0.102-0.738,0.578-0.738,2.082v5.104c0,1.503,0.159,1.967,0.738,2.097v0.174
			c-0.795-0.029-1.113-0.029-1.721-0.029c-0.564,0-0.853,0-1.59,0.029v-0.174c0.577-0.13,0.723-0.564,0.723-2.097V54.93
			C145.499,53.396,145.34,52.949,144.776,52.848"/>
		<path fill="#005D7D" d="M152.107,54.092v2.414h1.59c0.968,0,1.374-0.188,1.577-0.723h0.174c-0.031,0.606-0.031,0.854-0.031,1.359
			c0,0.533,0,0.795,0.031,1.46h-0.174c-0.159-0.491-0.579-0.68-1.549-0.68h-1.618v2.169c0,0.68,0.144,0.796,1.025,0.796h0.969
			c1.057,0,1.548-0.231,1.735-0.796l0.174,0.029l-0.23,2.184h-6.246v-0.188c0.578-0.116,0.722-0.551,0.722-2.098v-5.09
			c0-1.561-0.144-1.98-0.722-2.096V52.66h6.29v2.111h-0.188c-0.219-0.55-0.564-0.68-1.635-0.68H152.107"/>
		<path fill="#005D7D" d="M160.002,54.076v5.958c0,1.503,0.159,1.967,0.737,2.097v0.174c-0.854-0.029-1.2-0.029-1.661-0.029
			c-0.479,0-0.812,0-1.65,0.029v-0.174c0.578-0.13,0.724-0.564,0.724-2.097V54.93c0-1.533-0.159-1.98-0.724-2.082V52.66h3.585
			c1.231,0,1.853,0.115,2.502,0.463c0.854,0.461,1.331,1.287,1.331,2.312c0,1.229-0.636,2.068-1.864,2.487l2.169,3.368
			c0.375,0.594,0.55,0.754,0.881,0.854v0.173c-0.506,0.058-0.939,0.087-1.287,0.087c-0.866,0-1.243-0.216-1.763-1.084l-2.519-4.106
			l0.086-0.117c0.19,0.029,0.277,0.045,0.437,0.045c1.186,0,1.967-0.637,1.967-1.576c0-0.998-0.752-1.548-2.069-1.548
			C160.523,54.019,160.378,54.019,160.002,54.076"/>
		<path fill="#005D7D" d="M172.439,52.66v2.111h-0.205c-0.447-0.608-1.17-0.955-2.024-0.955c-0.824,0-1.431,0.492-1.431,1.156
			c0,0.623,0.23,0.825,1.967,1.707c1.126,0.578,1.664,1.1,1.923,1.865c0.116,0.331,0.174,0.68,0.174,1.056
			c0,1.793-1.346,2.95-3.441,2.95c-0.769,0-1.504-0.146-2.372-0.463l-0.189-1.967l0.189-0.015c0.507,0.665,1.316,1.026,2.27,1.026
			c0.998,0,1.737-0.621,1.737-1.46c0-0.637-0.363-1.056-1.374-1.562c-1.634-0.824-2.126-1.229-2.473-2.011
			c-0.132-0.303-0.203-0.65-0.203-1.013c0-1.561,1.242-2.66,2.992-2.66c0.508,0,0.883,0.059,1.593,0.246
			c0.143,0.043,0.316,0.072,0.402,0.072c0.088,0,0.146-0.014,0.261-0.086H172.439"/>
		<polyline fill="#005D7D" points="207.2,52.664 208.979,52.664 207.244,54.529 206.173,54.529 207.2,52.664 		"/>
		<path fill="#005D7D" d="M177.464,52.848V52.66h3.442c1.474,0,2.574,0.274,3.456,0.867c1.258,0.854,1.98,2.284,1.98,3.961
			c0,3.023-1.996,4.816-5.38,4.816h-3.499V62.13c0.578-0.131,0.723-0.548,0.723-2.095V54.93
			C178.187,53.396,178.029,52.948,177.464,52.848 M180.038,54.178v5.48c0,1.012,0.174,1.2,1.2,1.2c1.981,0,3.211-1.257,3.211-3.312
			c0-2.111-1.33-3.455-3.412-3.455C180.704,54.092,180.515,54.105,180.038,54.178z"/>
		<path fill="#005D7D" d="M190.535,54.092v2.413h1.591c0.969,0,1.373-0.187,1.577-0.722h0.173c-0.029,0.606-0.029,0.854-0.029,1.359
			c0,0.534,0,0.795,0.029,1.459h-0.173c-0.16-0.491-0.579-0.679-1.547-0.679h-1.621v2.17c0,0.679,0.146,0.794,1.026,0.794h0.97
			c1.056,0,1.548-0.23,1.735-0.794l0.174,0.028l-0.232,2.184h-6.246v-0.188c0.578-0.117,0.723-0.55,0.723-2.097v-5.09
			c0-1.562-0.145-1.981-0.723-2.098V52.66h6.289v2.11h-0.187c-0.218-0.55-0.565-0.679-1.635-0.679H190.535"/>
		<path fill="#005D7D" d="M206.167,60.136l-0.232,2.169h-5.886V62.13c0.579-0.1,0.726-0.563,0.726-2.095V54.93
			c0-1.518-0.159-1.995-0.726-2.082V52.66l0.726,0.014c0.376,0.014,0.679,0.014,0.938,0.014c0.261,0,0.565,0,0.928-0.014
			l0.707-0.014v0.188c-0.549,0.101-0.723,0.578-0.723,2.082v4.382c0,0.939,0.016,1.128,0.129,1.286
			c0.13,0.202,0.362,0.261,0.941,0.261h0.693c0.911,0,1.346-0.202,1.59-0.751L206.167,60.136"/>
		<path fill="#005D7D" d="M216.322,50.453c3.643,0,6.125,2.446,6.125,6.021c0,3.626-2.482,6.124-6.074,6.124
			c-3.678,0-6.247-2.517-6.247-6.124C210.126,52.865,212.609,50.453,216.322,50.453 M216.339,52.206
			c-2.308,0-3.938,1.804-3.938,4.372c0,2.498,1.612,4.252,3.887,4.252c2.291,0,3.886-1.77,3.886-4.322
			C220.173,53.975,218.613,52.206,216.339,52.206z"/>
		<path fill="#005D7D" d="M225.23,52.227l6.272,6.621V54.93c0-1.591-0.158-2.039-0.765-2.082V52.66l0.765,0.014l0.826,0.014
			l0.825-0.014l0.721-0.014v0.188c-0.549,0.101-0.708,0.549-0.708,2.082v7.75h-0.202l-6.262-6.578v3.934
			c0,1.574,0.146,2.01,0.753,2.095v0.175c-0.839-0.029-1.187-0.029-1.605-0.029c-0.405,0-0.736,0-1.547,0.029V62.13
			c0.577-0.131,0.723-0.563,0.723-2.095v-7.809H225.23"/>
		<path fill="#005D7D" d="M239.443,54.105v5.93c0,1.488,0.174,1.964,0.78,2.095v0.175c-0.867-0.029-1.229-0.029-1.721-0.029
			c-0.492,0-0.825,0-1.649,0.029V62.13c0.578-0.131,0.738-0.563,0.738-2.095v-5.93h-0.723c-1.012,0-1.417,0.158-1.634,0.652h-0.189
			l0.189-2.098h6.623l0.188,2.098h-0.188c-0.233-0.494-0.638-0.652-1.635-0.652H239.443"/>
		<path fill="#005D7D" d="M249.062,60.048h-3.629l-0.506,1.173c-0.088,0.201-0.131,0.375-0.131,0.505
			c0,0.202,0.117,0.333,0.362,0.391v0.188c-0.782-0.029-1.114-0.029-1.706-0.029c-0.479,0-0.637,0-1.128,0.029v-0.188
			c0.347-0.146,0.462-0.304,0.824-1.099l4.049-8.851h0.246l4.078,8.966c0.229,0.534,0.463,0.824,0.779,0.983v0.188
			c-0.579-0.029-0.809-0.029-1.314-0.029c-0.349,0-0.696,0-1.041,0.014l-0.695,0.016v-0.188c0.275-0.044,0.406-0.202,0.406-0.434
			c0-0.116-0.06-0.349-0.131-0.535L249.062,60.048 M248.528,58.616l-1.261-3.036l-1.257,3.036H248.528z"/>
		<path fill="#005D7D" d="M255.728,54.076v5.959c0,1.502,0.16,1.964,0.737,2.095v0.175c-0.852-0.029-1.2-0.029-1.663-0.029
			c-0.476,0-0.809,0-1.646,0.029V62.13c0.577-0.131,0.72-0.563,0.72-2.095V54.93c0-1.533-0.159-1.981-0.72-2.082V52.66h3.584
			c1.229,0,1.85,0.115,2.502,0.462c0.851,0.463,1.331,1.287,1.331,2.313c0,1.229-0.636,2.068-1.867,2.487l2.169,3.368
			c0.376,0.594,0.549,0.754,0.883,0.854v0.173c-0.507,0.058-0.939,0.086-1.288,0.086c-0.867,0-1.242-0.215-1.764-1.084l-2.515-4.105
			l0.087-0.117c0.187,0.029,0.273,0.045,0.433,0.045c1.186,0,1.967-0.638,1.967-1.577c0-0.997-0.751-1.546-2.067-1.546
			C256.249,54.02,256.104,54.02,255.728,54.076"/>
		<path fill="#005D7D" d="M262.611,52.848V52.66l0.722,0.014c0.348,0.014,0.666,0.014,0.955,0.014c0.276,0,0.579,0,0.883-0.014
			l0.751-0.014v0.188c-0.562,0.101-0.737,0.578-0.737,2.082v5.105c0,1.502,0.158,1.964,0.737,2.095v0.175
			c-0.796-0.029-1.114-0.029-1.719-0.029c-0.566,0-0.854,0-1.592,0.029V62.13c0.578-0.131,0.722-0.563,0.722-2.095V54.93
			C263.333,53.396,263.174,52.948,262.611,52.848"/>
		<path fill="#005D7D" d="M272.704,52.429c3.036,0,5.104,2.038,5.104,5.017c0,3.022-2.067,5.105-5.061,5.105
			c-3.065,0-5.205-2.097-5.205-5.105C267.542,54.438,269.609,52.429,272.704,52.429 M272.717,53.889
			c-1.922,0-3.281,1.504-3.281,3.644c0,2.083,1.345,3.542,3.238,3.542c1.909,0,3.239-1.473,3.239-3.6
			C275.913,55.363,274.613,53.889,272.717,53.889z"/>
	</g>
	<path fill="#005D7D" d="M63.949,31.762c0,0,0,5.492,0,18.5S53.25,63.523,53.25,63.523H10.7c0,0-10.7-0.254-10.7-13.262
		s0-18.5,0-18.5s0-5.492,0-18.5S10.7,0,10.7,0h42.55c0,0,10.699,0.254,10.699,13.262S63.949,31.762,63.949,31.762"/>
	<path fill="#C5DA82" d="M60.565,20.644h-4.681c2.812-1.483,4.547-4.403,4.547-8.115c0-5.36-3.722-9.03-9.187-9.03
		c-5.57,0-9.291,3.617-9.291,9.03c0,3.698,1.798,6.628,4.696,8.115h-7.914V8c0-2.76,0.287-3.564,1.276-3.748V3.914L38.708,3.94
		l-1.483,0.026L35.744,3.94l-1.381-0.026v0.338C35.456,4.33,35.744,5.137,35.744,8v6.9L25.782,3.492l-0.678,0.004v13.69
		c0,2.046-0.144,3.003-0.642,3.457h-6.359c0.82-0.378,1.584-0.847,2.259-1.401l0.003-0.001c0.126-0.135,0.257-0.196,0.523-0.247
		l0.254-0.27l-2.535-2.201l-0.002-0.002c-1.354,1.586-3.472,2.54-5.613,2.54c-3.546,0-6.063-2.629-6.063-6.377
		c0-3.851,2.544-6.558,6.144-6.558c2.118,0,4.204,0.946,5.541,2.518h0.001l2.527-2.195l-0.254-0.27
		c-0.266-0.049-0.396-0.112-0.523-0.246c-1.918-1.547-4.519-2.436-7.319-2.436c-5.793,0-9.663,3.617-9.663,9.03
		c0,3.698,1.87,6.628,4.884,8.115H3.879v3.202h4.663c-3.197,1.343-5.159,4.314-5.159,8.237c0,5.414,3.851,9.187,9.369,9.187
		c5.388,0,9.109-3.746,9.109-9.187c0-3.894-1.969-6.886-5.138-8.237h7.242c0.883,0.242,1.138,1.107,1.138,3.711v9.186
		c0,2.76-0.26,3.539-1.301,3.774v0.312c1.327-0.054,1.848-0.054,2.862-0.054c1.093,0,1.667,0,3.098,0.054v-0.312
		c-1.041-0.235-1.328-1.067-1.328-3.774v-9.186c0-2.557,0.28-3.465,1.166-3.711h4.615c0.883,0.242,1.137,1.107,1.137,3.711v9.186
		c0,2.76-0.259,3.539-1.3,3.774v0.312c1.327-0.054,1.848-0.054,2.863-0.054c1.092,0,1.665,0,3.097,0.054v-0.312
		c-1.042-0.235-1.328-1.067-1.328-3.774v-9.186c0-2.557,0.28-3.465,1.166-3.711h7.262c-3.197,1.343-5.159,4.314-5.159,8.237
		c0,5.414,3.851,9.187,9.369,9.187c5.387,0,9.109-3.746,9.109-9.187c0-3.894-1.97-6.886-5.139-8.237h5.273V20.644 M51.27,6.127
		c3.409,0,5.751,2.653,5.751,6.453c0,3.826-2.394,6.481-5.829,6.481c-3.409,0-5.83-2.629-5.83-6.377
		C45.362,8.834,47.809,6.127,51.27,6.127z M12.622,38.617c-3.41,0-5.83-2.629-5.83-6.377c0-3.854,2.447-6.559,5.909-6.559
		c3.409,0,5.751,2.654,5.751,6.455C18.452,35.962,16.058,38.617,12.622,38.617z M51.192,38.617c-3.409,0-5.83-2.629-5.83-6.377
		c0-3.854,2.447-6.559,5.908-6.559c3.409,0,5.751,2.654,5.751,6.455C57.021,35.962,54.627,38.617,51.192,38.617z M28.123,17.187
		v-6.914l9.102,10.371h-8.487C28.258,20.196,28.123,19.223,28.123,17.187z"/>
	<rect x="74.052" y="31.883" fill="#005D7D" width="171.871" height="0.883"/>
	<g>
		<path fill="#005D7D" d="M83.651,0.822v2.559h-0.229c-0.812-0.705-1.782-1.059-3-1.059c-2.399,0-4.058,1.782-4.058,4.358
			c0,2.61,1.641,4.411,4.006,4.411c1.252,0,2.364-0.424,3.158-1.199l0.229,0.052l-0.281,2.365c-1.041,0.405-2.029,0.582-3.194,0.582
			c-3.688,0-6.229-2.54-6.229-6.193c0-3.6,2.471-6.157,5.947-6.157c0.794,0,1.535,0.086,2.418,0.334
			c0.246,0.053,0.458,0.088,0.633,0.088c0.124,0,0.213-0.035,0.354-0.141H83.651"/>
		<path fill="#005D7D" d="M90.189,2.549c3.088,0,5.19,2.074,5.19,5.102c0,3.074-2.102,5.191-5.146,5.191
			c-3.117,0-5.294-2.133-5.294-5.191S87.042,2.549,90.189,2.549 M90.204,4.033c-1.956,0-3.338,1.529-3.338,3.706
			c0,2.117,1.367,3.603,3.294,3.603c1.941,0,3.294-1.5,3.294-3.661C93.454,5.533,92.129,4.033,90.204,4.033z"/>
		<path fill="#005D7D" d="M102.981,10.385l-0.235,2.207h-5.985v-0.176c0.589-0.104,0.735-0.574,0.735-2.133V5.092
			c0-1.543-0.161-2.028-0.735-2.116V2.783l0.735,0.016c0.383,0.015,0.692,0.015,0.957,0.015c0.263,0,0.573,0,0.941-0.015l0.72-0.016
			v0.192c-0.559,0.103-0.735,0.588-0.735,2.116v4.455c0,0.957,0.015,1.147,0.132,1.31c0.133,0.206,0.368,0.265,0.955,0.265h0.706
			c0.927,0,1.368-0.205,1.618-0.765L102.981,10.385"/>
		<path fill="#005D7D" d="M110.789,10.385l-0.235,2.207h-5.985v-0.176c0.589-0.104,0.736-0.574,0.736-2.133V5.092
			c0-1.543-0.162-2.028-0.736-2.116V2.783l0.736,0.016c0.382,0.015,0.691,0.015,0.954,0.015c0.266,0,0.574,0,0.943-0.015l0.72-0.016
			v0.192c-0.559,0.103-0.735,0.588-0.735,2.116v4.455c0,0.957,0.015,1.147,0.132,1.31c0.133,0.206,0.368,0.265,0.956,0.265h0.705
			c0.927,0,1.368-0.205,1.618-0.765L110.789,10.385"/>
		<path fill="#005D7D" d="M114.406,4.239v2.456h1.617c0.985,0,1.397-0.191,1.604-0.734h0.176c-0.029,0.617-0.029,0.867-0.029,1.381
			c0,0.545,0,0.809,0.029,1.486h-0.176c-0.162-0.5-0.589-0.691-1.574-0.691h-1.647v2.205c0,0.691,0.147,0.809,1.045,0.809h0.984
			c1.073,0,1.573-0.234,1.765-0.809l0.176,0.029l-0.235,2.221h-6.352V12.4c0.588-0.117,0.735-0.559,0.735-2.132V5.092
			c0-1.588-0.147-2.014-0.735-2.131V2.783h6.396v2.147h-0.19c-0.221-0.558-0.575-0.691-1.663-0.691H114.406"/>
		<path fill="#005D7D" d="M128.978,7.666v4.412c-0.838,0.366-1.176,0.469-2.073,0.616c-0.559,0.088-1.103,0.147-1.647,0.147
			c-3.073,0-5.19-2.073-5.19-5.073c0-1.573,0.647-3.073,1.721-4.043c0.912-0.824,1.941-1.177,3.367-1.177
			c0.75,0,1.338,0.074,2.22,0.309c0.147,0.044,0.265,0.059,0.368,0.059s0.177-0.029,0.28-0.133h0.191v2.133h-0.191
			c-0.721-0.588-1.589-0.883-2.632-0.883c-2.03,0-3.397,1.471-3.397,3.662c0,2.117,1.381,3.646,3.278,3.646
			c0.603,0,1.235-0.133,1.824-0.411V9.239c0-0.883-0.221-1.295-0.735-1.397V7.666H128.978"/>
		<path fill="#005D7D" d="M133.109,4.239v2.456h1.618c0.985,0,1.396-0.191,1.602-0.734h0.177c-0.029,0.617-0.029,0.867-0.029,1.381
			c0,0.545,0,0.809,0.029,1.486h-0.177c-0.161-0.5-0.588-0.691-1.573-0.691h-1.647v2.205c0,0.691,0.147,0.809,1.044,0.809h0.986
			c1.073,0,1.573-0.234,1.764-0.809l0.176,0.029l-0.235,2.221h-6.352V12.4c0.588-0.117,0.735-0.559,0.735-2.132V5.092
			c0-1.588-0.147-2.014-0.735-2.131V2.783h6.396v2.147h-0.191c-0.22-0.558-0.574-0.691-1.661-0.691H133.109"/>
		<path fill="#005D7D" d="M146.887,2.549c3.087,0,5.191,2.074,5.191,5.102c0,3.074-2.104,5.191-5.147,5.191
			c-3.116,0-5.293-2.133-5.293-5.191S143.74,2.549,146.887,2.549 M146.901,4.033c-1.955,0-3.337,1.529-3.337,3.706
			c0,2.117,1.366,3.603,3.293,3.603c1.94,0,3.294-1.5,3.294-3.661C150.151,5.533,148.828,4.033,146.901,4.033z"/>
		<path fill="#005D7D" d="M155.779,4.239v2.427h1.47c1.016,0,1.5-0.191,1.706-0.691h0.176v0.441
			c-0.014,0.295-0.014,0.896-0.014,1.309c0,0.456,0,0.588,0.014,1.059h-0.176c-0.264-0.529-0.631-0.662-1.706-0.662h-1.47v2.162
			c0,1.529,0.176,2,0.75,2.133v0.176c-0.793-0.014-1.131-0.029-1.691-0.029c-0.573,0-0.882,0.016-1.676,0.029v-0.176
			c0.574-0.119,0.736-0.588,0.736-2.133V5.092c0-1.543-0.162-2.014-0.736-2.131V2.783h6.337v2.118h-0.176
			c-0.221-0.528-0.559-0.662-1.736-0.662H155.779"/>
		<path fill="#005D7D" d="M164.703,0.293l7.658,8.082V3.592c0-1.94-0.194-2.487-0.936-2.541V0.822l0.936,0.018l1.006,0.018
			l1.005-0.018l0.883-0.018v0.229c-0.67,0.125-0.865,0.672-0.865,2.541v9.459h-0.246l-7.641-8.029v4.8
			c0,1.925,0.176,2.452,0.917,2.558v0.213c-1.021-0.035-1.446-0.035-1.958-0.035c-0.495,0-0.9,0-1.888,0.035v-0.213
			c0.707-0.157,0.882-0.688,0.882-2.558V0.293H164.703"/>
		<path fill="#005D7D" d="M175.976,2.976V2.783l0.75,0.016c0.279,0.015,0.589,0.015,0.912,0.015c0.338,0,0.661,0,0.972-0.015
			l0.72-0.016v0.192c-0.574,0.103-0.736,0.588-0.736,2.116v3.353c0,1.162,0.104,1.706,0.412,2.134
			c0.354,0.484,0.985,0.764,1.705,0.764c0.795,0,1.516-0.354,1.81-0.926c0.25-0.455,0.31-0.838,0.31-2V5.092
			c0-1.543-0.162-2.014-0.736-2.116V2.783l0.722,0.016c0.323,0.015,0.646,0.015,0.971,0.015c0.529,0,0.851-0.015,1.661-0.03v0.192
			c-0.574,0.103-0.75,0.588-0.75,2.116v3.367c0,1.722-0.161,2.383-0.766,3.088c-0.721,0.854-1.821,1.295-3.25,1.295
			c-1.278,0-2.338-0.383-3.028-1.073c-0.661-0.69-0.94-1.456-0.94-2.72V5.092C176.712,3.563,176.549,3.063,175.976,2.976"/>
		<path fill="#005D7D" d="M188.954,4.226v6.058c0,1.529,0.163,2,0.75,2.133v0.176c-0.867-0.029-1.22-0.029-1.691-0.029
			c-0.483,0-0.821,0-1.676,0.029v-0.176c0.587-0.133,0.735-0.574,0.735-2.133V5.092c0-1.559-0.16-2.014-0.735-2.116V2.783h3.647
			c1.25,0,1.883,0.118,2.544,0.471c0.866,0.472,1.352,1.309,1.352,2.353c0,1.25-0.646,2.104-1.896,2.53l2.205,3.425
			c0.383,0.604,0.559,0.767,0.896,0.869v0.176c-0.514,0.06-0.956,0.088-1.309,0.088c-0.881,0-1.265-0.22-1.793-1.103l-2.561-4.176
			l0.089-0.119c0.191,0.031,0.279,0.045,0.441,0.045c1.207,0,2-0.646,2-1.603c0-1.015-0.765-1.573-2.104-1.573
			C189.484,4.166,189.337,4.166,188.954,4.226"/>
		<path fill="#005D7D" d="M201.777,2.783v2.147h-0.206c-0.456-0.618-1.191-0.97-2.06-0.97c-0.838,0-1.456,0.5-1.456,1.176
			c0,0.633,0.236,0.838,2,1.734c1.147,0.59,1.691,1.118,1.955,1.897c0.119,0.338,0.179,0.69,0.179,1.073c0,1.824-1.368,3-3.5,3
			c-0.779,0-1.529-0.147-2.412-0.471l-0.191-2l0.191-0.015c0.515,0.677,1.338,1.044,2.308,1.044c1.016,0,1.766-0.632,1.766-1.484
			c0-0.646-0.367-1.074-1.396-1.588c-1.662-0.839-2.162-1.25-2.515-2.045c-0.134-0.309-0.205-0.66-0.205-1.029
			c0-1.588,1.264-2.705,3.043-2.705c0.514,0,0.896,0.059,1.616,0.25c0.147,0.043,0.323,0.074,0.412,0.074
			c0.088,0,0.147-0.016,0.266-0.09H201.777"/>
		<path fill="#005D7D" d="M206.409,4.239v2.456h1.617c0.984,0,1.396-0.191,1.602-0.734h0.177c-0.027,0.617-0.027,0.867-0.027,1.381
			c0,0.545,0,0.809,0.027,1.486h-0.177c-0.163-0.5-0.588-0.691-1.573-0.691h-1.646v2.205c0,0.691,0.146,0.809,1.044,0.809h0.983
			c1.074,0,1.574-0.234,1.767-0.809l0.175,0.029l-0.234,2.221h-6.354V12.4c0.589-0.117,0.737-0.559,0.737-2.132V5.092
			c0-1.588-0.148-2.014-0.737-2.131V2.783h6.396v2.147h-0.19c-0.219-0.558-0.573-0.691-1.661-0.691H206.409"/>
		<path fill="#005D7D" d="M217.496,2.783v2.147h-0.207c-0.456-0.618-1.19-0.97-2.057-0.97c-0.841,0-1.457,0.5-1.457,1.176
			c0,0.633,0.235,0.838,2,1.734c1.146,0.59,1.689,1.118,1.956,1.897c0.116,0.338,0.177,0.69,0.177,1.073c0,1.824-1.368,3-3.5,3
			c-0.78,0-1.53-0.147-2.412-0.471l-0.191-2l0.191-0.015c0.515,0.677,1.338,1.044,2.308,1.044c1.017,0,1.767-0.632,1.767-1.484
			c0-0.646-0.368-1.074-1.398-1.588c-1.661-0.839-2.161-1.25-2.514-2.045c-0.133-0.309-0.205-0.66-0.205-1.029
			c0-1.588,1.262-2.705,3.043-2.705c0.514,0,0.896,0.059,1.617,0.25c0.146,0.043,0.323,0.074,0.412,0.074
			c0.088,0,0.146-0.016,0.264-0.09H217.496"/>
		<path fill="#005D7D" d="M79.302,17.453c3.088,0,5.191,2.073,5.191,5.103c0,3.073-2.103,5.19-5.147,5.19
			c-3.117,0-5.294-2.132-5.294-5.19C74.052,19.498,76.155,17.453,79.302,17.453 M79.317,18.938c-1.956,0-3.338,1.528-3.338,3.706
			c0,2.117,1.367,3.602,3.293,3.602c1.941,0,3.294-1.5,3.294-3.66C82.566,20.438,81.243,18.938,79.317,18.938z"/>
		<path fill="#005D7D" d="M88.302,19.144v2.427h1.47c1.015,0,1.5-0.191,1.706-0.691h0.177v0.441
			c-0.015,0.295-0.015,0.896-0.015,1.309c0,0.457,0,0.588,0.015,1.059h-0.177c-0.265-0.529-0.632-0.661-1.706-0.661h-1.47v2.161
			c0,1.529,0.177,2,0.75,2.133v0.176c-0.794-0.014-1.133-0.029-1.691-0.029c-0.573,0-0.882,0.016-1.676,0.029V27.32
			c0.572-0.117,0.735-0.588,0.735-2.133v-5.189c0-1.545-0.163-2.017-0.735-2.134v-0.177h6.337v2.118h-0.176
			c-0.221-0.53-0.559-0.662-1.735-0.662H88.302"/>
		<path fill="#005D7D" d="M103.178,15.443c3.705,0,6.229,2.489,6.229,6.124c0,3.688-2.524,6.229-6.176,6.229
			c-3.74,0-6.352-2.559-6.352-6.229S99.402,15.443,103.178,15.443 M103.196,17.227c-2.347,0-4.005,1.835-4.005,4.447
			c0,2.541,1.641,4.322,3.952,4.322c2.329,0,3.952-1.799,3.952-4.393C107.095,19.025,105.506,17.227,103.196,17.227z"/>
		<path fill="#005D7D" d="M111.559,17.246l6.381,6.736v-3.984c0-1.619-0.161-2.076-0.778-2.119v-0.191l0.778,0.016l0.839,0.014
			l0.838-0.014l0.735-0.016v0.191c-0.559,0.103-0.721,0.559-0.721,2.119v7.881h-0.206l-6.367-6.69v3.999
			c0,1.604,0.147,2.045,0.765,2.133v0.176c-0.852-0.029-1.205-0.029-1.632-0.029c-0.411,0-0.75,0-1.573,0.029V27.32
			c0.588-0.133,0.735-0.574,0.735-2.133v-7.941H111.559"/>
		<path fill="#005D7D" d="M125.777,19.158v6.029c0,1.516,0.176,2,0.794,2.133v0.176c-0.883-0.029-1.25-0.029-1.75-0.029
			s-0.839,0-1.677,0.029V27.32c0.588-0.133,0.75-0.574,0.75-2.133v-6.029h-0.735c-1.029,0-1.442,0.162-1.662,0.662h-0.19l0.19-2.133
			h6.735l0.191,2.133h-0.191c-0.236-0.5-0.647-0.662-1.661-0.662H125.777"/>
		<path fill="#005D7D" d="M135.128,25.203h-3.69l-0.515,1.19c-0.088,0.206-0.133,0.382-0.133,0.515c0,0.207,0.118,0.338,0.368,0.396
			v0.191c-0.794-0.029-1.132-0.029-1.735-0.029c-0.485,0-0.647,0-1.147,0.029v-0.191c0.353-0.146,0.471-0.309,0.838-1.117l4.117-9
			h0.25l4.147,9.118c0.235,0.544,0.47,0.838,0.794,0.999v0.191c-0.588-0.029-0.822-0.029-1.338-0.029c-0.353,0-0.706,0-1.059,0.016
			l-0.705,0.014v-0.191c0.279-0.043,0.411-0.205,0.411-0.44c0-0.118-0.059-0.353-0.132-0.544L135.128,25.203 M134.584,23.746
			l-1.279-3.088l-1.279,3.088H134.584z"/>
		<path fill="#005D7D" d="M142.275,19.129v6.059c0,1.529,0.16,2,0.749,2.133v0.176c-0.867-0.029-1.221-0.029-1.691-0.029
			c-0.485,0-0.823,0-1.676,0.029V27.32c0.589-0.133,0.735-0.574,0.735-2.133v-5.189c0-1.561-0.162-2.017-0.735-2.119v-0.191h3.646
			c1.25,0,1.882,0.118,2.543,0.471c0.868,0.471,1.354,1.309,1.354,2.354c0,1.25-0.647,2.104-1.897,2.529l2.204,3.426
			c0.384,0.604,0.561,0.766,0.898,0.869v0.176c-0.515,0.059-0.955,0.088-1.31,0.088c-0.882,0-1.264-0.221-1.793-1.104l-2.559-4.176
			l0.088-0.117c0.191,0.029,0.28,0.045,0.441,0.045c1.206,0,2-0.648,2-1.604c0-1.016-0.765-1.574-2.104-1.574
			C142.804,19.07,142.657,19.07,142.275,19.129"/>
		<path fill="#005D7D" d="M149.788,17.879v-0.191l0.735,0.016c0.353,0.014,0.678,0.014,0.971,0.014c0.279,0,0.587,0,0.896-0.014
			l0.767-0.016v0.191c-0.575,0.103-0.75,0.588-0.75,2.119v5.189c0,1.529,0.162,2,0.75,2.133v0.176
			c-0.81-0.029-1.133-0.029-1.75-0.029c-0.574,0-0.868,0-1.618,0.029V27.32c0.588-0.133,0.735-0.574,0.735-2.133v-5.189
			C150.523,18.438,150.363,17.981,149.788,17.879"/>
		<path fill="#005D7D" d="M159.523,17.453c3.088,0,5.188,2.073,5.188,5.103c0,3.073-2.101,5.19-5.146,5.19
			c-3.117,0-5.293-2.132-5.293-5.19C154.273,19.498,156.375,17.453,159.523,17.453 M159.537,18.938
			c-1.956,0-3.338,1.528-3.338,3.706c0,2.117,1.367,3.602,3.294,3.602c1.94,0,3.294-1.5,3.294-3.66
			C162.787,20.438,161.463,18.938,159.537,18.938z"/>
	</g>
</g>
</svg>
